<svg width="1049" height="1050" viewBox="0 0 1049 1050" fill="none" xmlns="http://www.w3.org/2000/svg">
<circle cx="267.807" cy="534.52" r="116.533" stroke="#7C39BF" stroke-width="50"/>
<path d="M508.783 928.511C508.783 955.062 502.399 972.111 493.177 983.809C483.794 995.711 469.319 1004.81 448.209 1011.35C404.748 1024.83 343.25 1024.83 268.677 1024.83H266.891H265.106C190.533 1024.83 129.035 1024.83 85.5738 1011.35C64.4634 1004.81 49.9889 995.711 40.606 983.809C31.3835 972.111 24.9996 955.062 24.9996 928.511C24.9996 823.559 128.837 731.101 266.891 731.101C404.946 731.101 508.783 823.559 508.783 928.511Z" stroke="#7C39BF" stroke-width="50"/>
<path d="M811.7 983.384H605.418C602.094 983.384 599.4 980.689 599.4 977.366V295.936M811.7 983.384H1017.98C1021.31 983.384 1024 980.689 1024 977.366V31.0183C1024 27.6945 1021.31 25 1017.98 25H817.718C814.394 25 811.7 27.6945 811.7 31.0183V150.358M811.7 983.384V150.358M811.7 150.358H605.418C602.094 150.358 599.4 153.053 599.4 156.377V295.936M599.4 295.936H415.359C412.035 295.936 409.34 298.63 409.34 301.954V380.856" stroke="#7C39BF" stroke-width="50"/>
<path d="M384 341H434V456C419.177 423.687 408.538 413.484 384 391V341Z" fill="#7C39BF"/>
</svg>
