<svg width="1074" height="748" viewBox="0 0 1074 748" fill="none" xmlns="http://www.w3.org/2000/svg">
<path d="M831.4 178.595C860.861 178.595 984.89 178.595 1042.05 178.595C1045.91 178.595 1049 181.728 1049 185.592V581.198C1049 585.062 1045.87 588.194 1042 588.194H915.197C911.333 588.194 908.2 591.327 908.2 595.191V715.94C908.2 722.498 899.987 725.452 895.81 720.395L788.699 590.735C787.37 589.126 785.392 588.194 783.305 588.194H409.001" stroke="#7C39BF" stroke-width="50" stroke-linecap="round" stroke-linejoin="round"/>
<path d="M715.602 453.799L341.906 453.799C339.813 453.799 337.829 454.737 336.5 456.355L203.802 617.9C199.633 622.976 191.4 620.028 191.4 613.459L191.4 460.796C191.4 456.932 188.267 453.799 184.403 453.799H31.9963C28.1324 453.799 25 450.667 25 446.803L25 31.9965C25 28.1326 28.1323 25.0002 31.9963 25.0002L715.602 25.0002C719.466 25.0002 722.599 28.1326 722.599 31.9965L722.599 446.803C722.599 450.667 719.466 453.799 715.602 453.799Z" stroke="#7C39BF" stroke-width="50"/>
</svg>
