<svg width="1024" height="977" viewBox="0 0 1024 977" fill="none" xmlns="http://www.w3.org/2000/svg">
<path d="M316.333 501.007C316.333 547.388 276.869 586.71 226.018 586.71C175.166 586.71 135.702 547.388 135.702 501.007C135.702 454.627 175.166 415.305 226.018 415.305C276.869 415.305 316.333 454.627 316.333 501.007Z" stroke="#7C39BF" stroke-width="50"/>
<path d="M888.297 501.007C888.297 547.388 848.833 586.71 797.982 586.71C747.131 586.71 707.667 547.388 707.667 501.007C707.667 454.627 747.131 415.305 797.982 415.305C848.833 415.305 888.297 454.627 888.297 501.007Z" stroke="#7C39BF" stroke-width="50"/>
<path d="M427.036 837.726C427.036 859.622 421.793 876.537 413.218 889.934C404.569 903.448 391.627 914.779 374.188 923.963C338.619 942.694 286.948 951.105 226.018 951.105C165.088 951.105 113.417 942.694 77.8478 923.963C60.409 914.779 47.4674 903.448 38.8178 889.934C30.2426 876.537 25 859.622 25 837.726C25 751.076 110.64 673.609 226.018 673.609C341.396 673.609 427.036 751.076 427.036 837.726Z" stroke="#7C39BF" stroke-width="50"/>
<path d="M999 837.726C999 859.622 993.757 876.537 985.182 889.934C976.533 903.448 963.591 914.779 946.152 923.963C910.583 942.694 858.912 951.105 797.982 951.105C737.052 951.105 685.381 942.694 649.812 923.963C632.373 914.779 619.431 903.448 610.782 889.934C602.207 876.537 596.964 859.622 596.964 837.726C596.964 751.076 682.604 673.609 797.982 673.609C913.36 673.609 999 751.076 999 837.726Z" stroke="#7C39BF" stroke-width="50"/>
<path d="M714.503 163.679C700.601 153.253 633.892 89.8256 631.961 55.0729C628.485 -7.48524 701.967 -12.6563 715 35.1326C728.033 -12.6563 800.521 -7.48763 797.046 55.0705C795.115 89.8232 732.75 153.254 718.848 163.681" stroke="#7C39BF" stroke-width="4.70444"/>
<path d="M716.625 156.843L722.768 162.987L716.625 169.131L710.481 162.987L716.625 156.843Z" fill="#7C39BF"/>
<path d="M713.5 39.1338C713.5 60.7275 743.248 162 719.255 162C695.262 162 633.5 75.2273 633.5 53.6336C633.5 32.0399 646.762 2 670.755 2C694.748 2 713.5 17.5401 713.5 39.1338Z" fill="#7C39BF"/>
<path d="M709.5 50.1328C709.5 71.7265 690.51 163.68 714.503 163.68C738.496 163.68 798.5 73.7265 798.5 52.1328C798.5 30.5391 781.493 4.13281 757.5 4.13281C733.507 4.13281 709.5 28.5391 709.5 50.1328Z" fill="#7C39BF"/>
<path d="M723.377 43.8195C723.377 48.6181 719.487 52.5081 714.689 52.5081C709.89 52.5081 706 48.6181 706 43.8195C706 39.0209 709.89 35.1309 714.689 35.1309C719.487 35.1309 723.377 39.0209 723.377 43.8195Z" fill="#7C39BF"/>
<circle cx="505.021" cy="234.443" r="117.02" fill="#7C39BF"/>
<rect x="472.255" y="81.8491" width="63.6586" height="50.5524" fill="#7C39BF"/>
<rect x="622.561" y="132.403" width="63.6586" height="50.5524" transform="rotate(60.8856 622.561 132.403)" fill="#7C39BF"/>
<rect x="652.983" y="283.361" width="63.6586" height="50.5524" transform="rotate(119.448 652.983 283.361)" fill="#7C39BF"/>
<rect x="472.255" y="338.355" width="63.6586" height="50.5524" fill="#7C39BF"/>
<rect x="398.464" y="257.206" width="63.6586" height="50.5524" transform="rotate(60.8856 398.464 257.206)" fill="#7C39BF"/>
<rect x="429.617" y="157.255" width="63.6586" height="50.5524" transform="rotate(119.448 429.617 157.255)" fill="#7C39BF"/>
<circle cx="504.084" cy="235.379" r="56.1694" fill="white"/>
</svg>
