<?xml version="1.0" encoding="UTF-8" standalone="no"?>
<!DOCTYPE svg PUBLIC "-//W3C//DTD SVG 1.1//EN" "http://www.w3.org/Graphics/SVG/1.1/DTD/svg11.dtd">
<svg width="100%" height="100%" viewBox="0 0 503 913" version="1.1" xmlns="http://www.w3.org/2000/svg" xmlns:xlink="http://www.w3.org/1999/xlink" xml:space="preserve" xmlns:serif="http://www.serif.com/" style="fill-rule:evenodd;clip-rule:evenodd;stroke-linejoin:round;stroke-miterlimit:2;">
    <path d="M499.019,606.322C508.052,679.801 500.886,760.373 464.19,819.993C442.098,855.878 409.136,884.541 361.412,900.006C313.375,915.574 249.284,918.098 164.787,899.421C159.524,898.257 154.415,896.99 149.46,895.621L499.019,606.322ZM157.708,739.425L223.447,511.792L484.528,575.833L117.145,879.873L157.693,739.471L157.718,739.461L157.708,739.425ZM34.982,478.02L123.418,740.179L86.451,868.183C77.033,862.11 68.539,855.442 60.901,848.245C36.111,824.896 19.543,795.233 10.007,760.245C-9.223,689.665 0.441,598.31 28.919,498.481C30.858,491.69 32.879,484.868 34.982,478.02ZM191.629,503.99L139.35,685.012L68.057,473.681L191.629,503.99ZM338.935,281.215C358.848,328.2 381.258,374.109 405.489,419.011C415.646,437.831 426.125,456.482 436.938,474.937C449.874,497.025 463.262,518.84 477.168,540.327L60.598,438.149L338.853,281.015L338.935,281.215ZM61.942,399.797C116.104,257.235 197.415,111.36 271.319,0C270.453,25.221 272.535,51.737 276.834,78.839C285.574,133.89 303.66,192.717 326.379,250.469L61.942,399.797Z" style="fill:white;fill-rule:nonzero;"/>
</svg>
