<?xml version="1.0" encoding="UTF-8" standalone="no"?><!DOCTYPE svg PUBLIC "-//W3C//DTD SVG 1.1//EN" "http://www.w3.org/Graphics/SVG/1.1/DTD/svg11.dtd"
><svg
  width="100%"
  height="100%"
  viewBox="0 0 2292 3125"
  version="1.1"
  xmlns="http://www.w3.org/2000/svg"
  xmlns:xlink="http://www.w3.org/1999/xlink"
  xml:space="preserve"
  xmlns:serif="http://www.serif.com/"
  style="fill-rule: evenodd; clip-rule: evenodd; stroke-linecap: round; stroke-linejoin: round;"
>
  <style>
    #bulb {
      opacity: 0;

      animation-name: bob, fadeIn;
      animation-duration: 1s;
      animation-timing-function: ease-in-out;
      animation-delay: 1s;
      animation-fill-mode: forwards;

      will-change: transform, opacity;
    }

    @keyframes fadeIn {
      from {
        opacity: 0;
      }
      to {
        opacity: 1;
      }
    }

    @keyframes bob {
      0% {
        transform: translatey(80px);
      }
      50% {
        transform: translatey(-20px);
      }
      100% {
        transform: translatey(0px);
      }
    }
  </style>
  <g>
    <g>
      <path
        d="M578.873,2758.22c305.625,0 553.383,58.713 553.383,131.138c0,72.421 -247.758,131.133 -553.383,131.133c-305.625,0 -553.383,-58.712 -553.383,-131.133c0,-72.425 247.758,-131.138 553.383,-131.138Z"
        style="fill: #b0adb6;"
      />
    </g>
    <g>
      <path
        d="M1708.86,2840.89c307.8,0 557.321,47.863 557.321,106.904c0,59.042 -249.521,106.904 -557.321,106.904c-307.8,0 -557.321,-47.862 -557.321,-106.904c0,-59.041 249.521,-106.904 557.321,-106.904Z"
        style="fill: #c0bbc9;"
      />
    </g>
    <g>
      <path
        d="M1642.12,697.307l14.083,149.821l-119.454,0.012l1.512,-125.766l-15.754,-129.73l107.758,-221.887c0,0 -100.329,-28.092 -146.845,23.408c-52.23,65.713 28.866,149.104 28.866,149.104"
        style="fill: #18110e;"
      />
    </g>
    <g>
      <path
        d="M1431.88,1698.67c0,0 16.496,287.196 43.038,547.755c27.75,272.462 33.908,497.054 33.908,497.054l114.225,39.262c0,0 15.054,-306.212 17.063,-439.621c1.133,-30.883 -9.034,-94.016 -9.034,-94.016l37.479,-505.084l9.963,-47.125l-127.621,-74.133l-119.021,75.908Z"
        style="fill: #d39e73;"
      />
    </g>
    <g>
      <path
        d="M1656.88,1725.04c0,0 45.038,187.533 107.579,449.758c71.242,298.705 107.367,606.909 107.367,606.909l111.542,25.812c0,0 -27.875,-456.641 -46.092,-647.137c-4.225,-44.192 -32.267,-114.309 -32.267,-114.309l-16.562,-365.116l-120.534,-21.025l-111.033,65.108Z"
        style="fill: #ecc8aa;"
      />
    </g>
    <g>
      <path
        d="M1623.07,2779.8l0.012,135.416c0,0 -338.629,21.146 -399.679,14.025c-34.8,-4.058 159.871,-68.25 159.871,-68.25l124.583,-116.229l-4.27,-34.879l129.141,4.4l-9.658,65.517Z"
        style="fill: #5e0c99;"
      />
    </g>
    <g>
      <path
        d="M1856.03,2719.56l15.221,61.546l-21.796,157.912l-46.083,73.467c0,0 14.708,68.146 70.796,70.792c56.083,2.645 132.9,-83.484 132.9,-83.484l-21.988,-192.875l0,-90.004l-129.05,2.646Z"
        style="fill: #5e0c99;"
      />
    </g>
    <g>
      <path
        d="M1522.23,1350.74c0,0 -64.242,75.363 -77.967,159.538c-14.741,90.412 -12.775,188.687 -12.775,188.687c0,0 61.467,-29.471 116.95,-24.566c55.525,4.904 107.892,50 107.892,50l4.467,-344.175l-138.567,-29.484Z"
        style="fill: #5c229e;"
      />
    </g>
    <g>
      <path
        d="M1806.23,1355.58c0,0 49.017,46.512 69.279,132.516c20.259,86.009 13.871,212.109 13.871,212.109c0,0 -48.533,-18.846 -106.229,-12.409c-57.696,6.442 -126.662,37.571 -126.662,37.571l-47.23,-174.429l-30.054,-45.617l-0.537,-144.375l227.562,-5.366Z"
        style="fill: url(#_Linear1);"
      />
    </g>
    <g>
      <path
        d="M1630.11,926.544c-19.504,107.696 -173.333,352.121 -173.333,352.121c0,0 -19.717,42.267 -56.75,29.867c-5.433,-1.821 -10.475,-4.013 -15.079,-6.542c-26.792,-14.725 -38.917,-40.996 -28.509,-73.129l105.134,-339.862c12.196,-37.663 52.108,-58.134 89.141,-45.734c37.034,12.404 98.905,-24.412 79.396,83.279Z"
        style="fill: #d39e73;"
      />
    </g>
    <g>
      <path
        d="M1508.32,843.178c20.837,-6.146 68.512,-16.092 88.125,-18.375c11.325,-1.321 -12.317,40.558 -12.317,40.558"
        style="fill: #d39e73;"
      />
    </g>
    <g>
      <path
        d="M1225.78,1028.56l222.863,192.442c17.17,19.65 53.616,-19.196 53.616,-19.196c0,0 -56.066,105.671 -76.537,113.846c-19.688,7.691 -40.479,9.229 -57.646,-10.425l-194.954,-223.121c-17.171,-19.65 -15.159,-49.5 4.496,-66.671c19.65,-17.171 30.991,-6.525 48.162,13.125Z"
        style="fill: #d39e73;"
      />
    </g>
    <g><path d="M1420.62,1313.58c-0.046,0.204 -0.075,0.117 0.095,0.254l-0.095,-0.254Z" style="fill: #d39e73;" /></g>
    <g>
      <path
        d="M1200.6,931.694c13.133,16.071 21.758,29.23 21.758,29.23c21.142,29.783 12.913,67.783 -16.875,88.925c-15.029,10.67 -16.104,47.991 -30.941,35.245c-7.417,-6.366 -33.117,-29.475 -59.859,-53.154l-17.47,-20.358c-21.142,-29.783 -14.138,-71.071 15.645,-92.213c29.784,-21.145 52.813,-30.87 87.742,12.325Z"
        style="fill: #d39e73;"
      />
    </g>
    <g>
      <path
        d="M1109.81,818.403c0,0 95.867,119.841 97.254,121.941c1.388,2.1 -12.841,-4.495 -20.691,1.855c-7.854,6.35 -19.367,5.129 -25.717,-2.725l-79.287,-98.084c-6.346,-7.854 -5.125,-19.366 2.725,-25.712c7.854,-6.35 19.366,-5.129 25.716,2.725Z"
        style="fill: #d39e73;"
      />
    </g>
    <g>
      <path
        d="M1218.64,1041.49c18.308,6.958 43.266,-78.579 43.266,-78.579c0,0 -33.637,-65.433 -55.812,-58.95c-24.379,7.125 -49.542,17.225 -49.542,17.225c0,0 40.142,111.962 62.088,120.304Z"
        style="fill: #d39e73;"
      />
    </g>
    <g>
      <path
        d="M1127.37,898.669l30.771,31.759c6.854,7.075 6.675,18.362 -0.396,25.216c-7.075,6.855 -18.367,6.675 -25.217,-0.395l-30.775,-31.759c-6.854,-7.075 -6.675,-18.366 0.396,-25.221c7.075,-6.85 18.367,-6.675 25.221,0.4Z"
        style="fill: #d39e73;"
      />
    </g>
    <g>
      <path
        d="M1111.27,929.028l33.704,36.408c6.875,7.429 6.425,19.025 -1,25.9c-7.429,6.875 -19.021,6.425 -25.896,-1.004l-33.704,-36.408c-6.875,-7.43 -6.425,-19.021 1,-25.896c7.429,-6.875 19.021,-6.429 25.896,1Z"
        style="fill: #d39e73;"
      />
    </g>
    <g>
      <path
        d="M1115.32,982.228l29.471,29.196c5.866,5.812 5.912,15.275 0.1,21.141c-5.809,5.867 -15.275,5.913 -21.142,0.1l-29.471,-29.196c-5.866,-5.808 -5.912,-15.275 -0.1,-21.141c5.809,-5.867 15.275,-5.909 21.142,-0.1Z"
        style="fill: #d39e73;"
      />
    </g>
    <g>
      <path
        d="M1096.49,960.744l29.216,30.059c6.842,7.033 6.68,18.283 -0.354,25.125c-7.037,6.837 -18.287,6.679 -25.129,-0.359l-29.212,-30.054c-6.842,-7.037 -6.684,-18.283 0.354,-25.125c7.037,-6.841 18.287,-6.679 25.125,0.354Z"
        style="fill: #d39e73;"
      />
    </g>
    <g>
      <path
        d="M1895.14,898.686c0.283,-19.604 -1.042,-37.762 -4.559,-54.167c-83.604,-49.054 -297.262,-19.404 -297.262,-19.404l-90.888,117.45c0,0 -45.879,43.863 -41.275,96.484c4.605,52.62 59.634,113.933 59.634,113.933l1.041,197.133c0,0 71.9,37.05 144.663,39.584c72.762,2.537 116.487,-11.188 140.887,-33.071c2.334,-116.321 85.788,-320.721 87.759,-457.942Z"
        style="fill: url(#_Linear2);"
      />
    </g>
    <g>
      <path
        d="M1923.18,865.115l229.075,316.675c27.963,36.434 53.905,75.704 16.084,95.704l-25.821,-3.179l-67.454,-29.675l-261.729,-261.075c-27.963,-36.433 -26.042,-92.483 4.291,-125.191c30.334,-32.709 77.592,-29.692 105.554,6.741Z"
        style="fill: #ecc8aa;"
      />
    </g>
    <g>
      <path
        d="M2168.48,1277.34l-288.008,121.209c-27.271,11.733 -33.296,-10.225 -45.029,-37.496c-11.734,-27.271 12.575,-26.213 39.846,-37.946l207.925,-143.125c27.27,-11.733 64.737,14.283 76.475,41.554c11.733,27.275 19.037,39.467 8.791,55.804Z"
        style="fill: #ecc8aa;"
      />
    </g>
    <g>
      <path
        d="M1875.14,1400.36c0,0 -23.771,14.4 -33.65,2.575c-26.429,-31.65 -19.392,-31.329 -40.4,-49.15c-27.146,-23.029 -75.167,-13.017 -86.754,-14.913c-52.296,-8.558 -25.705,-49.404 -25.705,-49.404c0,0 38.363,-49.537 68.709,-51.041c31.129,7.758 55.658,18.641 55.658,18.641c0,0 96.608,44.617 103.213,41.788c35.883,-15.396 -41.071,101.504 -41.071,101.504Z"
        style="fill: #ecc8aa;"
      />
    </g>
    <g><path d="M1840.04,1299.27l-18.092,-40.754l18.092,40.754Z" style="fill: #ecc8aa;" /></g>
    <g>
      <path
        d="M1640.85,723.065l2.508,112.967c0,0 27.613,11.758 53.834,10.875c26.583,-0.892 58.1,-16.413 58.1,-16.413l3.825,-183.02"
        style="fill: url(#_Linear3);"
      />
    </g>
    <g>
      <path
        d="M1610.01,401.678c0,0 -41.65,13.783 -72.562,52.291c-15.534,19.355 -27.159,50.771 -31.617,115.53c-4.462,64.758 3.75,101.341 13.779,143.5c4.642,14.829 10.925,22.637 27.109,23.787c121.404,8.608 182.304,-26.05 182.304,-26.05c0,0 11.075,-11.312 17.966,-25.5c6.892,-14.187 17.78,-33.854 17.78,-33.854l36.166,13.379l36.484,-77.833l-20.267,-22.7"
        style="fill: #ecc8aa;"
      />
    </g>
    <g>
      <path d="M1759.06,639.782c42.084,96.925 145.788,-86.704 45.271,-68.292l-45.271,68.292Z" style="fill: #ecc8aa;" />
    </g>
    <g>
      <path
        d="M1594.77,403.257c0,0 -0.121,83.758 59.425,123.425c49.771,33.154 112.267,54.846 126.971,53.383"
        style="fill: #2b1f1b;"
      />
    </g>
    <g><path d="M1594.81,361.386l0.809,41.883l-0.809,-41.883Z" style="fill: #2b1f1b;" /></g>
    <g>
      <path
        d="M1596.87,363.919c-19.321,57.959 32.425,109.421 82.029,129.263l-82.029,-129.263Z"
        style="fill: #2b1f1b;"
      />
    </g>
    <g>
      <path
        d="M1596.96,363.757c-5.729,9.692 -8.271,45.333 -6.187,59.362c5.729,38.555 34.591,82.18 54.862,97.6"
        style="fill: #2b1f1b;"
      />
    </g>
    <g>
      <path
        d="M1597.03,363.715c0,0 147.7,-8.721 214.288,26.371c56.941,30.008 65.154,70.308 67.787,78.863c12.617,70.741 14.859,150.654 14.859,150.654l3.783,223.846c0,0 -54.904,-15.834 -84.075,-20.58c-29.171,-4.745 -58.088,-6.029 -58.088,-6.029l3.184,-154.666l6.191,-11.371c0,0 11.038,18.912 29.913,13.404c18.871,-5.513 40.129,-22.854 48.275,-46.513c8.15,-23.658 2.287,-36.583 -8.875,-43.525c-6.958,-4.325 -23.588,-5.75 -33.992,-1.591c-12.8,5.112 -22.3,19.741 -22.3,19.741l-6.104,9.755l-143.142,-161.046l-31.704,-77.313Z"
        style="fill: #2b1f1b;"
      />
    </g>
    <g><path d="M1881.64,619.249c-0.038,-0.246 -0.075,-0.496 -0.109,-0.746l0.109,0.746Z" style="fill: #2b1f1b;" /></g>
    <g><path d="M560.381,556.64l38.979,53.846l15.271,-69.117l-54.25,15.271Z" style="fill: #100a1a;" /></g>
    <g>
      <path
        d="M934.344,1525.65l-14,70.946l-4.488,59.608l-10.15,24.762l-27.875,68l-55.875,19.221l26.384,-234.833l86.004,-7.704Z"
        style="fill: #391d11;"
      />
    </g>
    <g>
      <path
        d="M848.485,757.936c0,0 49.125,22.129 69.225,58.063c59.33,104.441 98.688,533.287 98.688,533.287c0,0 6.692,136.583 -76.996,207.55c-58.604,49.696 -131.225,8.704 -131.225,8.704l40.308,-807.604Z"
        style="fill: #5c229e;"
      />
    </g>
    <g>
      <path
        d="M581.898,2765.26l1.358,132.05c0,0 338.629,21.142 399.679,14.021c34.805,-4.058 -159.87,-68.246 -159.87,-68.246l-131.792,-101.033l-20.888,-44.679l-85.008,-19.442l-3.479,87.329Z"
        style="fill: #5e0c99;"
      />
    </g>
    <g>
      <path
        d="M462.14,2702.67l4.587,63.237l-48.204,151.946l-57.846,64.608c0,0 2.963,69.65 57.792,81.75c54.829,12.1 164.225,-65.583 164.225,-65.583l0.821,-197.108l-3.463,-178.692l-117.912,79.842Z"
        style="fill: #9834df;"
      />
    </g>
    <g>
      <path
        d="M827.502,1246.82c0,0 40.875,110.817 43.533,190.275c-16.762,230.4 -55.454,406.184 -110.579,731.317c-55.683,328.408 -67.046,575 -67.046,575c0,0 -44.604,20.454 -77.275,12.5c-32.67,-7.954 -53.408,-44.317 -53.408,-44.317l106.817,-1448.87l157.958,-15.909Z"
        style="fill: url(#_Linear4);"
      />
    </g>
    <g>
      <path
        d="M726.36,1269.36l-7.208,240.679l-31.704,31.708c0,0 -46.121,279.592 -72.063,579.363c-25.941,299.771 -32.791,638.721 -32.791,638.721c0,0 -39.579,35.462 -70.292,37.196c-30.717,1.737 -52.562,-30.259 -52.562,-30.259c0,0 -18.725,-195.75 -28.5,-365.816c-3.55,-61.775 -11.363,-120.159 -8.975,-164.546c3.716,-68.946 33.15,-136.913 33.15,-136.913c0,0 -6.967,-467.066 2.883,-677.366c32.217,-157.759 56.204,-157.092 56.204,-157.092l211.858,4.325Z"
        style="fill: url(#_Linear5);"
      />
    </g>
    <g>
      <path
        d="M439.319,745.69c0,0 98.212,-26.487 197.862,-25.229c99.65,1.263 211.421,37.475 211.421,37.475c0,0 15.063,44.267 16.175,168.746c1.113,124.479 -20.55,332.496 -20.55,332.496c0,0 -60.687,32.979 -154.308,34.241c-93.625,1.259 -206.984,-31.966 -206.984,-31.966c0,0 -36.645,-188.009 -46.454,-316.809c-9.812,-128.804 2.838,-198.954 2.838,-198.954Z"
        style="fill: #9b44ff;"
      />
    </g>
    <g>
      <path
        d="M439.415,745.711c0,0 -27.355,2.146 -56.534,27.517c-29.166,25.362 -50.691,84.612 -50.691,84.612c0,0 -164.538,363.654 -128.334,456.817c25.254,64.983 70,98.675 140,99.917c70,1.237 140,-94.967 140,-94.967l-44.441,-573.896Z"
        style="fill: url(#_Linear6);"
      />
    </g>
    <g>
      <path
        d="M808.54,967.499l-70.246,421.379c-2.192,13.154 -26.704,25.758 -41.013,23.375l-280.483,-52.496c-14.308,-2.383 -24.129,-14.979 -21.938,-28.129l59.33,-421.025c2.191,-13.15 26.487,-22.234 40.795,-19.85l291.617,48.616c14.308,2.384 24.129,14.98 21.938,28.13Z"
        style="fill: #9baaff;"
      />
    </g>
    <g>
      <path
        d="M796.435,971.249l-70.25,421.383c-2.191,13.15 -15.566,21.879 -29.875,19.492l-291.616,-48.613c-14.309,-2.387 -24.129,-14.979 -21.938,-28.133l70.246,-421.379c2.192,-13.15 15.567,-21.88 29.875,-19.492l291.621,48.612c14.308,2.388 24.129,14.98 21.937,28.13Z"
        style="fill: #f1f9ff;"
      />
    </g>
    <g>
      <path
        d="M534.023,969.624l-7.479,44.775l-43.396,-7.25l7.483,-44.775l43.392,7.25Z"
        style="fill: #9ba8ff; fill-opacity: 0.58;"
      />
    </g>
    <g>
      <path
        d="M516.169,1053.74l-7.454,45.759l-42.571,-6.934l7.454,-45.758l42.571,6.933Z"
        style="fill: #9ba8ff; fill-opacity: 0.54;"
      />
    </g>
    <g><path d="M502.294,1142.12l-8.038,47.2l-45.529,-7.75l8.038,-47.205l45.529,7.755Z" style="fill: #9ba8ff;" /></g>
    <g><path d="M486.306,1224.21l-8.262,48.092l-44.317,-7.613l8.263,-48.092l44.316,7.613Z" style="fill: #9ba8ff;" /></g>
    <g>
      <path
        d="M756.619,1017.29l-8.692,54.884c-1.054,6.654 -6.033,11.4 -11.121,10.591l-168.829,-26.737c-5.087,-0.804 -8.358,-6.854 -7.304,-13.513l8.692,-54.879c1.054,-6.658 6.033,-11.404 11.12,-10.596l168.83,26.738c5.091,0.804 8.358,6.854 7.304,13.512Z"
        style="fill: #c9d1ff; fill-opacity: 0.38;"
      />
    </g>
    <g>
      <path
        d="M745.723,1115.34l-10.371,71.742c-0.737,5.096 -5.371,8.617 -10.346,7.858l-173.771,-26.35c-4.975,-0.754 -8.412,-5.495 -7.675,-10.591l10.371,-71.742c0.738,-5.096 5.371,-8.617 10.346,-7.862l173.771,26.35c4.975,0.754 8.412,5.5 7.675,10.595Z"
        style="fill: #c9d1ff; fill-opacity: 0.38;"
      />
    </g>
    <g>
      <path
        d="M588.098,1219.69c0,0 -14.933,28.409 -12.208,57.18c2.725,28.77 24.529,45.75 24.529,45.75l81.046,-3.025l76.895,-10.467c0,0 69.434,-61.671 81.134,-103.679c11.704,-42.009 -76.079,-36.467 -76.079,-36.467l-46.755,24.15l-25.175,-3.567c0,0 -7.941,-3.3 2.2,-14.745c10.142,-11.446 23.767,-33.163 23.767,-33.163c0,0 0.008,-17.121 -21.2,-8.742c-9.046,3.575 -58.437,39.238 -63.162,55.18c-4.55,15.345 -11.084,30.504 -11.084,30.504l-33.908,1.091Z"
        style="fill: #613421;"
      />
    </g>
    <g>
      <path
        d="M643.535,1271.99c-0.091,-11.237 -1.708,-21.771 -3.345,-32.812c-5.888,-39.642 -19.605,-86.75 -76.175,-110.104c-65.905,-27.205 -288.625,53.987 -288.625,53.987c0,0 -74.13,33.633 -77.005,83.854c-4.22,73.863 47.988,119.138 47.988,119.138c0,0 49.404,61.996 229.642,27.866c95.062,-18 135.591,-21.379 161.816,-104.816c4.396,-13.992 5.8,-25.871 5.704,-37.113Z"
        style="fill: #7738c0;"
      />
    </g>
    <g>
      <path
        d="M726.015,640.074l1.475,110.129c0,0 -41.305,31.279 -74.263,21.658c-32.954,-9.621 -60.921,-39.829 -60.921,-39.829l-3.758,-202.646l137.467,110.688Z"
        style="fill: url(#_Linear7);"
      />
    </g>
    <g>
      <path
        d="M744.752,268.049c0,0 43.167,15.341 75.208,58.208c16.1,21.546 28.15,56.521 32.771,128.604c4.621,72.088 -3.887,112.813 -14.287,159.742c-4.809,16.508 -11.321,25.2 -28.096,26.479c-125.833,9.583 -188.95,-28.996 -188.95,-28.996c0,0 -11.479,-12.596 -18.621,-28.387c-7.146,-15.796 -13.621,-29.184 -13.621,-29.184c0,0 -18.779,24.729 -36.741,19.646c-13.042,-3.696 -22.046,-7.904 -33.946,-25.033c-16.129,-23.213 -13.142,-45.375 -13.142,-45.375c0,0 0.079,-21.538 19.196,-26.746c14.433,-3.771 26.579,5.725 26.579,5.725l16.579,-133.971l9.359,-24.6l167.712,-56.112Z"
        style="fill: #613421;"
      />
    </g>
    <g>
      <path d="M1759.06,639.782c42.084,96.925 145.788,-86.704 45.271,-68.292l-45.271,68.292Z" style="fill: #ecc8aa;" />
    </g>
    <g>
      <path
        d="M528.169,476.49c18.8,-2.658 41.866,24.354 41.866,24.354l28.342,-73.35l-21.279,-46.287l11.75,-41.004c0,0 42.65,-31.421 111.496,-41.959c114.85,-11.029 135.5,58.417 135.5,58.417l-6.163,-154.675l0.134,-0.262c0,0 -115.217,-24.167 -190.767,-10.938c-75.546,13.225 -146.829,56.446 -146.829,56.446c0,0 15.612,163.912 35.95,229.258Z"
        style="fill: url(#_Linear8);"
      />
    </g>
    <g id="bulb">
      <path
        d="M1210.74,486.557c0,8.896 -7.213,16.108 -16.109,16.108l-22.208,0c-8.896,0 -16.108,-7.212 -16.108,-16.108c0,-8.896 7.212,-16.108 16.108,-16.108l22.208,0c8.896,0 16.109,7.212 16.109,16.108Z"
        style="fill: #5a577d;"
      />
      <rect x="1138.68" y="422.215" width="86.329" height="40.496" style="fill: #4f4f77;" />
      <g>
        <path
          id="light-top"
          d="M1186.58,151.29c61.717,0 111.746,50.034 111.746,111.754c0,61.721 -50.029,111.755 -111.746,111.755c-61.712,0 -111.741,-50.034 -111.741,-111.755c0,-61.72 50.029,-111.754 111.741,-111.754Z"
          style="fill: #ffe39c;"
        />
        <path
          id="light-top-luminance"
          d="M1186.58,151.29c61.717,0 111.746,50.034 111.746,111.754c0,61.721 -50.029,111.755 -111.746,111.755c-61.712,0 -111.741,-50.034 -111.741,-111.755c0,-61.72 50.029,-111.754 111.741,-111.754Z"
          style="fill: url(#_Radial9);"
        />
      </g>
      <path
        id="light-bottom"
        d="M1109.5,343.586c0,0 13.112,20.967 19.596,41.913c6.479,20.95 6.329,41.875 6.329,41.875l94.654,0.366c0,0 1.717,-21.408 9.667,-42.612c7.946,-21.204 22.125,-42.2 22.125,-42.2l-152.371,0.658Z"
        style="fill: #ffe39c;"
      />
      <path
        d="M1231.56,466.994c0,6.234 -4.662,11.284 -10.421,11.284l-79.95,0c-5.754,0 -10.42,-5.05 -10.42,-11.284c0,-6.233 4.666,-11.283 10.42,-11.283l79.95,0c5.759,0 10.421,5.05 10.421,11.283Z"
        style="fill: #625f8a;"
      />
      <path
        d="M1238.04,428.149c0,8.475 -6.871,15.345 -15.342,15.345l-81.721,0c-8.475,0 -15.346,-6.87 -15.346,-15.345c0,-8.475 6.871,-15.342 15.346,-15.342l81.721,0c8.471,0 15.342,6.867 15.342,15.342Z"
        style="fill: url(#_Linear10);"
      />
      <path d="M1160.11,413.911l-28.97,-121.546l28.97,121.546Z" style="fill: #fff;" />
      <g>
        <path
          d="M1173.4,178.069c20.625,-6.337 58.121,2.013 80.621,30.821c22.5,28.804 20.95,60.913 13.208,79.517"
          style="fill: none; fill-rule: nonzero; stroke: #fff; stroke-opacity: 0.5; stroke-width: 31.71px;"
        />
        <path
          d="M1138.44,190.474c0.016,0.141 0.033,0.254 0.033,0.254c0,0 -0.017,-0.113 -0.033,-0.254Zm0,0c-0.017,-0.138 -0.034,-0.255 -0.034,-0.255c0,0 0.017,0.117 0.034,0.255Z"
          style="fill: none; fill-rule: nonzero; stroke: #fff; stroke-opacity: 0.5; stroke-width: 31.71px;"
        />
      </g>
      <g opacity="0.62">
        <path
          d="M1169.63,412.328c0,0 4.563,-64.6 -6.295,-87.163c-7.571,-15.741 -13.213,-14.15 -18,-12.712c-4.788,1.441 -5.913,6.775 -1.15,18.466c4.545,11.15 19.237,15.659 32.937,11.909c13.704,-3.75 22.383,-15.225 21.871,-26.917c-0.558,-12.742 -7.338,-18.079 -13.458,-18.721c-6.121,-0.646 -9.346,3.709 -11.03,16.146c-1.458,10.792 4.588,25.929 17.346,28.913c12.754,2.983 32.854,-1.63 35.521,-13.071c1.838,-7.896 0.958,-22.038 -5.087,-22.596c-5.771,-0.533 -7.363,-2.488 -13.98,13.358c-10.237,24.517 -8.35,92.604 -8.35,92.604"
          style="fill: none; fill-rule: nonzero; stroke: #fff; stroke-width: 4.17px; stroke-linecap: butt;"
        />
        <path
          d="M1153.54,352.711c4.1,0 7.425,3.442 7.425,7.692c0,4.25 -3.325,7.696 -7.425,7.696c-4.105,0 -7.43,-3.446 -7.43,-7.696c0,-4.25 3.325,-7.692 7.43,-7.692Z"
          style="fill: none; stroke: #fff; stroke-width: 4.17px;"
        />
        <path
          d="M1223.78,349.065c4.729,0 8.567,3.642 8.567,8.134c0,4.487 -3.838,8.129 -8.567,8.129c-4.733,0 -8.567,-3.642 -8.567,-8.129c0,-4.492 3.834,-8.134 8.567,-8.134Z"
          style="fill: none; stroke: #fff; stroke-width: 4.17px;"
        />
      </g>
    </g>
  </g>
  <defs>
    <linearGradient
      id="_Linear1"
      x1="0"
      y1="0"
      x2="1"
      y2="0"
      gradientUnits="userSpaceOnUse"
      gradientTransform="matrix(-577.471,2.55417,-2.55417,-577.471,1896.98,1519.63)"
    >
      <stop offset="0" style="stop-color: #9b44ff; stop-opacity: 1;" />
      <stop offset="1" style="stop-color: #5c229e; stop-opacity: 1;" />
    </linearGradient>
    <linearGradient
      id="_Linear2"
      x1="0"
      y1="0"
      x2="1"
      y2="0"
      gradientUnits="userSpaceOnUse"
      gradientTransform="matrix(-21.2708,889.225,-889.225,-21.2708,1678.04,816.224)"
    >
      <stop offset="0" style="stop-color: #62d0ff; stop-opacity: 1;" />
      <stop offset="1" style="stop-color: #ab63ff; stop-opacity: 1;" />
    </linearGradient>
    <linearGradient
      id="_Linear3"
      x1="0"
      y1="0"
      x2="1"
      y2="0"
      gradientUnits="userSpaceOnUse"
      gradientTransform="matrix(-2.78333,289.533,-289.533,-2.78333,1699.98,647.478)"
    >
      <stop offset="0" style="stop-color: #d39e73; stop-opacity: 1;" />
      <stop offset="1" style="stop-color: #ecc8aa; stop-opacity: 1;" />
    </linearGradient>
    <linearGradient
      id="_Linear4"
      x1="0"
      y1="0"
      x2="1"
      y2="0"
      gradientUnits="userSpaceOnUse"
      gradientTransform="matrix(-5.33333,1825.94,-1825.94,-5.33333,716.881,1246.82)"
    >
      <stop offset="0" style="stop-color: #048bc5; stop-opacity: 1;" />
      <stop offset="1" style="stop-color: #7738c0; stop-opacity: 1;" />
    </linearGradient>
    <linearGradient
      id="_Linear5"
      x1="0"
      y1="0"
      x2="1"
      y2="0"
      gradientUnits="userSpaceOnUse"
      gradientTransform="matrix(-2.53333,2247.93,-2247.93,-2.53333,574.09,1265.04)"
    >
      <stop offset="0" style="stop-color: #62d0ff; stop-opacity: 1;" />
      <stop offset="1" style="stop-color: #b473ff; stop-opacity: 1;" />
    </linearGradient>
    <linearGradient
      id="_Linear6"
      x1="0"
      y1="0"
      x2="1"
      y2="0"
      gradientUnits="userSpaceOnUse"
      gradientTransform="matrix(20.3754,457.133,-457.133,20.3754,320.881,957.453)"
    >
      <stop offset="0" style="stop-color: #7738c0; stop-opacity: 1;" />
      <stop offset="1" style="stop-color: #5c229e; stop-opacity: 1;" />
    </linearGradient>
    <linearGradient
      id="_Linear7"
      x1="0"
      y1="0"
      x2="1"
      y2="0"
      gradientUnits="userSpaceOnUse"
      gradientTransform="matrix(7.725,200.842,-200.842,7.725,660.198,580.799)"
    >
      <stop offset="0" style="stop-color: #391d11; stop-opacity: 1;" />
      <stop offset="1" style="stop-color: #613421; stop-opacity: 1;" />
    </linearGradient>
    <linearGradient
      id="_Linear8"
      x1="0"
      y1="0"
      x2="1"
      y2="0"
      gradientUnits="userSpaceOnUse"
      gradientTransform="matrix(4.30833,72.3542,-72.3542,4.30833,659.723,428.49)"
    >
      <stop offset="0" style="stop-color: #100a1a; stop-opacity: 1;" />
      <stop offset="1" style="stop-color: #613421; stop-opacity: 1;" />
    </linearGradient>
    <radialGradient
      id="_Radial9"
      cx="0"
      cy="0"
      r="1"
      gradientUnits="userSpaceOnUse"
      gradientTransform="matrix(-3.95467e-14,103.294,-103.294,-3.95467e-14,1184.91,246.803)"
    >
      <stop offset="0" style="stop-color: #fff; stop-opacity: 0.4;" />
      <stop offset="1" style="stop-color: #fff; stop-opacity: 0;" />
    </radialGradient>
    <linearGradient
      id="_Linear10"
      x1="0"
      y1="0"
      x2="1"
      y2="0"
      gradientUnits="userSpaceOnUse"
      gradientTransform="matrix(1.87907e-15,30.6875,-30.6875,1.87907e-15,1181.84,412.803)"
    >
      <stop offset="0" style="stop-color: #625f8a; stop-opacity: 1;" />
      <stop offset="0.98" style="stop-color: #625f8a; stop-opacity: 1;" />
      <stop offset="1" style="stop-color: #625f8a; stop-opacity: 1;" />
    </linearGradient>
  </defs>
</svg>
