<?xml version="1.0" encoding="UTF-8" standalone="no"?>
<!DOCTYPE svg PUBLIC "-//W3C//DTD SVG 1.1//EN" "http://www.w3.org/Graphics/SVG/1.1/DTD/svg11.dtd">
<svg
  width="100%"
  height="100%"
  viewBox="0 0 612 864"
  version="1.1"
  xmlns="http://www.w3.org/2000/svg"
  xmlns:xlink="http://www.w3.org/1999/xlink"
  xml:space="preserve"
  xmlns:serif="http://www.serif.com/"
  style="fill-rule: evenodd; clip-rule: evenodd; stroke-linecap: round; stroke-linejoin: round;"
>
  <style>
    #bulb {
      opacity: 0;

      animation-name: bob, fadeIn;
      animation-duration: 1s;
      animation-timing-function: ease-in-out;
      animation-delay: 1s;
      animation-fill-mode: forwards;

      will-change: transform, opacity;
    }

    @keyframes fadeIn {
      from {
        opacity: 0;
      }
      to {
        opacity: 1;
      }
    }

    @keyframes bob {
      0% {
        transform: translatey(20px);
      }
      50% {
        transform: translatey(-5px);
      }
      100% {
        transform: translatey(0px);
      }
    }
  </style>

  <g>
    <g transform="matrix(1,0,0,1,8.3815,0)">
      <path
        d="M161.548,739.434C234.898,739.434 294.36,753.525 294.36,770.907C294.36,788.288 234.898,802.379 161.548,802.379C88.198,802.379 28.736,788.288 28.736,770.907C28.736,753.525 88.198,739.434 161.548,739.434Z"
        style="fill: rgb(176, 173, 182);"
      />
    </g>
    <g transform="matrix(1,0,0,1,8.3815,0)">
      <path
        d="M432.744,759.275C506.616,759.275 566.501,770.762 566.501,784.932C566.501,799.102 506.616,810.589 432.744,810.589C358.872,810.589 298.987,799.102 298.987,784.932C298.987,770.762 358.872,759.275 432.744,759.275Z"
        style="fill: rgb(192, 187, 201);"
      />
    </g>
    <g transform="matrix(1,0,0,1,8.3815,0)">
      <path
        d="M416.726,244.816L420.106,280.773L391.437,280.776L391.8,250.592L388.019,219.457L413.881,166.204C413.881,166.204 389.802,159.462 378.638,171.822C366.103,187.593 385.566,207.607 385.566,207.607"
        style="fill: rgb(24, 17, 14);"
      />
    </g>
    <g transform="matrix(1,0,0,1,8.3815,0)">
      <path
        d="M366.27,485.143C366.27,485.143 370.229,554.07 376.599,616.604C383.259,681.995 384.737,735.897 384.737,735.897L412.151,745.32C412.151,745.32 415.764,671.829 416.246,639.811C416.518,632.399 414.078,617.247 414.078,617.247L423.073,496.027L425.464,484.717L394.835,466.925L366.27,485.143Z"
        style="fill: rgb(211, 158, 115);"
      />
    </g>
    <g transform="matrix(1,0,0,1,8.3815,0)">
      <path
        d="M420.269,491.471C420.269,491.471 431.078,536.479 446.088,599.413C463.186,671.102 471.856,745.071 471.856,745.071L498.626,751.266C498.626,751.266 491.936,641.672 487.564,595.953C486.55,585.347 479.82,568.519 479.82,568.519L475.845,480.891L446.917,475.845L420.269,491.471Z"
        style="fill: rgb(236, 200, 170);"
      />
    </g>
    <g transform="matrix(1,0,0,1,8.3815,0)">
      <path
        d="M412.156,744.614L412.159,777.114C412.159,777.114 330.888,782.189 316.236,780.48C307.884,779.506 354.605,764.1 354.605,764.1L384.505,736.205L383.48,727.834L414.474,728.89L412.156,744.614Z"
        style="fill: rgb(94, 12, 153);"
      />
    </g>
    <g transform="matrix(1,0,0,1,8.3815,0)">
      <path
        d="M468.066,730.156L471.719,744.927L466.488,782.826L455.428,800.458C455.428,800.458 458.958,816.813 472.419,817.448C485.879,818.083 504.315,797.412 504.315,797.412L499.038,751.122L499.038,729.521L468.066,730.156Z"
        style="fill: rgb(94, 12, 153);"
      />
    </g>
    <g transform="matrix(1,0,0,1,8.3815,0)">
      <path
        d="M387.953,401.64C387.953,401.64 372.535,419.727 369.241,439.929C365.703,461.628 366.175,485.214 366.175,485.214C366.175,485.214 380.927,478.141 394.243,479.318C407.569,480.495 420.137,491.318 420.137,491.318L421.209,408.716L387.953,401.64Z"
        style="fill: rgb(92, 34, 158);"
      />
    </g>
    <g transform="matrix(1,0,0,1,8.3815,0)">
      <path
        d="M456.114,402.801C456.114,402.801 467.878,413.964 472.741,434.605C477.603,455.247 476.07,485.511 476.07,485.511C476.07,485.511 464.422,480.988 450.575,482.533C436.728,484.079 420.176,491.55 420.176,491.55L408.841,449.687L401.628,438.739L401.499,404.089L456.114,402.801Z"
        style="fill: url(#_Linear1);"
      />
    </g>
    <g transform="matrix(1,0,0,1,8.3815,0)">
      <path
        d="M413.844,299.833C409.163,325.68 372.244,384.342 372.244,384.342C372.244,384.342 367.512,394.486 358.624,391.51C357.32,391.073 356.11,390.547 355.005,389.94C348.575,386.406 345.665,380.101 348.163,372.389L373.395,290.822C376.322,281.783 385.901,276.87 394.789,279.846C403.677,282.823 418.526,273.987 413.844,299.833Z"
        style="fill: rgb(211, 158, 115);"
      />
    </g>
    <g transform="matrix(1,0,0,1,8.3815,0)">
      <path
        d="M384.615,279.825C389.616,278.35 401.058,275.963 405.765,275.415C408.483,275.098 402.809,285.149 402.809,285.149"
        style="fill: rgb(211, 158, 115);"
      />
    </g>
    <g transform="matrix(1,0,0,1,8.3815,0)">
      <path
        d="M316.805,324.317L370.292,370.503C374.413,375.219 383.16,365.896 383.16,365.896C383.16,365.896 369.704,391.257 364.791,393.219C360.066,395.065 355.076,395.434 350.956,390.717L304.167,337.168C300.046,332.452 300.529,325.288 305.246,321.167C309.962,317.046 312.684,319.601 316.805,324.317Z"
        style="fill: rgb(211, 158, 115);"
      />
    </g>
    <g transform="matrix(1,0,0,1,8.3815,0)">
      <path
        d="M363.566,392.722C363.555,392.771 363.548,392.75 363.589,392.783L363.566,392.722Z"
        style="fill: rgb(211, 158, 115);"
      />
    </g>
    <g transform="matrix(1,0,0,1,8.3815,0)">
      <path
        d="M310.763,301.069C313.915,304.926 315.985,308.084 315.985,308.084C321.059,315.232 319.084,324.352 311.935,329.426C308.328,331.987 308.07,340.944 304.509,337.885C302.729,336.357 296.561,330.811 290.143,325.128L285.95,320.242C280.876,313.094 282.557,303.185 289.705,298.111C296.853,293.036 302.38,290.702 310.763,301.069Z"
        style="fill: rgb(211, 158, 115);"
      />
    </g>
    <g transform="matrix(1,0,0,1,8.3815,0)">
      <path
        d="M288.972,273.879C288.972,273.879 311.98,302.641 312.313,303.145C312.646,303.649 309.231,302.066 307.347,303.59C305.462,305.114 302.699,304.821 301.175,302.936L282.146,279.396C280.623,277.511 280.916,274.748 282.8,273.225C284.685,271.701 287.448,271.994 288.972,273.879Z"
        style="fill: rgb(211, 158, 115);"
      />
    </g>
    <g transform="matrix(1,0,0,1,8.3815,0)">
      <path
        d="M315.092,327.419C319.486,329.089 325.476,308.56 325.476,308.56C325.476,308.56 317.403,292.856 312.081,294.412C306.23,296.122 300.191,298.546 300.191,298.546C300.191,298.546 309.825,325.417 315.092,327.419Z"
        style="fill: rgb(211, 158, 115);"
      />
    </g>
    <g transform="matrix(1,0,0,1,8.3815,0)">
      <path
        d="M293.187,293.143L300.572,300.765C302.217,302.463 302.174,305.172 300.477,306.817C298.779,308.462 296.069,308.419 294.425,306.722L287.039,299.1C285.394,297.402 285.437,294.692 287.134,293.047C288.832,291.403 291.542,291.445 293.187,293.143Z"
        style="fill: rgb(211, 158, 115);"
      />
    </g>
    <g transform="matrix(1,0,0,1,8.3815,0)">
      <path
        d="M289.324,300.429L297.413,309.167C299.063,310.95 298.955,313.733 297.173,315.383C295.39,317.033 292.608,316.925 290.958,315.142L282.869,306.404C281.219,304.621 281.327,301.839 283.109,300.189C284.892,298.539 287.674,298.646 289.324,300.429Z"
        style="fill: rgb(211, 158, 115);"
      />
    </g>
    <g transform="matrix(1,0,0,1,8.3815,0)">
      <path
        d="M290.296,313.197L297.369,320.204C298.777,321.599 298.788,323.87 297.393,325.278C295.999,326.686 293.727,326.697 292.319,325.302L285.246,318.295C283.838,316.901 283.827,314.629 285.222,313.221C286.616,311.813 288.888,311.803 290.296,313.197Z"
        style="fill: rgb(211, 158, 115);"
      />
    </g>
    <g transform="matrix(1,0,0,1,8.3815,0)">
      <path
        d="M285.777,308.041L292.789,315.255C294.431,316.943 294.392,319.643 292.704,321.285C291.015,322.926 288.315,322.888 286.673,321.199L279.662,313.986C278.02,312.297 278.058,309.598 279.747,307.956C281.436,306.314 284.136,306.353 285.777,308.041Z"
        style="fill: rgb(211, 158, 115);"
      />
    </g>
    <g transform="matrix(1,0,0,1,8.3815,0)">
      <path
        d="M477.453,293.147C477.521,288.442 477.203,284.084 476.359,280.147C456.294,268.374 405.016,275.49 405.016,275.49L383.203,303.678C383.203,303.678 372.192,314.205 373.297,326.834C374.402,339.463 387.609,354.178 387.609,354.178L387.859,401.49C387.859,401.49 405.115,410.382 422.578,410.99C440.041,411.599 450.535,408.305 456.391,403.053C456.951,375.136 476.98,326.08 477.453,293.147Z"
        style="fill: url(#_Linear2);"
      />
    </g>
    <g transform="matrix(1,0,0,1,8.3815,0)">
      <path
        d="M484.183,285.09L539.161,361.092C545.872,369.836 552.098,379.261 543.021,384.061L536.824,383.298L520.635,376.176L457.82,313.518C451.109,304.774 451.57,291.322 458.85,283.472C466.13,275.622 477.472,276.346 484.183,285.09Z"
        style="fill: rgb(236, 200, 170);"
      />
    </g>
    <g transform="matrix(1,0,0,1,8.3815,0)">
      <path
        d="M543.054,384.024L473.932,413.114C467.387,415.93 465.941,410.66 463.125,404.115C460.309,397.57 466.143,397.824 472.688,395.008L522.59,360.658C529.135,357.842 538.127,364.086 540.944,370.631C543.76,377.177 545.513,380.103 543.054,384.024Z"
        style="fill: rgb(236, 200, 170);"
      />
    </g>
    <g transform="matrix(1,0,0,1,8.3815,0)">
      <path
        d="M472.653,413.548C472.653,413.548 466.948,417.004 464.577,414.166C458.234,406.57 459.923,406.647 454.881,402.37C448.366,396.843 436.841,399.246 434.06,398.791C421.509,396.737 427.891,386.934 427.891,386.934C427.891,386.934 437.098,375.045 444.381,374.684C451.852,376.546 457.739,379.158 457.739,379.158C457.739,379.158 480.925,389.866 482.51,389.187C491.122,385.492 472.653,413.548 472.653,413.548Z"
        style="fill: rgb(236, 200, 170);"
      />
    </g>
    <g transform="matrix(1,0,0,1,8.3815,0)">
      <path d="M464.229,389.286L459.887,379.505L464.229,389.286Z" style="fill: rgb(236, 200, 170);" />
    </g>
    <g transform="matrix(1,0,0,1,8.3815,0)">
      <path
        d="M416.422,250.998L417.024,278.11C417.024,278.11 423.651,280.932 429.944,280.72C436.324,280.506 443.888,276.781 443.888,276.781L444.806,232.856"
        style="fill: url(#_Linear3);"
      />
    </g>
    <g transform="matrix(1,0,0,1,8.3815,0)">
      <path
        d="M409.02,173.865C409.02,173.865 399.024,177.173 391.605,186.415C387.877,191.06 385.087,198.6 384.017,214.142C382.946,229.684 384.917,238.464 387.324,248.582C388.438,252.141 389.946,254.015 393.83,254.291C422.967,256.357 437.583,248.039 437.583,248.039C437.583,248.039 440.241,245.324 441.895,241.919C443.549,238.514 446.162,233.794 446.162,233.794L454.842,237.005L463.598,218.325L458.734,212.877"
        style="fill: rgb(236, 200, 170);"
      />
    </g>
    <g transform="matrix(1,0,0,1,8.3815,0)">
      <path
        d="M444.792,231.01C454.892,254.272 479.781,210.201 455.657,214.62L444.792,231.01Z"
        style="fill: rgb(236, 200, 170);"
      />
    </g>
    <g transform="matrix(1,0,0,1,8.3815,0)">
      <path
        d="M405.364,174.244C405.364,174.244 405.335,194.346 419.626,203.866C431.571,211.823 446.57,217.029 450.099,216.678"
        style="fill: rgb(43, 31, 27);"
      />
    </g>
    <g transform="matrix(1,0,0,1,8.3815,0)">
      <path d="M405.372,164.195L405.566,174.247L405.372,164.195Z" style="fill: rgb(43, 31, 27);" />
    </g>
    <g transform="matrix(1,0,0,1,8.3815,0)">
      <path
        d="M405.867,164.803C401.23,178.713 413.649,191.064 425.554,195.826L405.867,164.803Z"
        style="fill: rgb(43, 31, 27);"
      />
    </g>
    <g transform="matrix(1,0,0,1,8.3815,0)">
      <path
        d="M405.888,164.764C404.513,167.09 403.903,175.644 404.403,179.011C405.778,188.264 412.705,198.734 417.57,202.435"
        style="fill: rgb(43, 31, 27);"
      />
    </g>
    <g transform="matrix(1,0,0,1,8.3815,0)">
      <path
        d="M405.906,164.754C405.906,164.754 441.354,162.661 457.335,171.083C471.001,178.285 472.972,187.957 473.604,190.01C476.632,206.988 477.17,226.167 477.17,226.167L478.078,279.89C478.078,279.89 464.901,276.09 457.9,274.951C450.899,273.812 443.959,273.504 443.959,273.504L444.723,236.384L446.209,233.655C446.209,233.655 448.858,238.194 453.388,236.872C457.917,235.549 463.019,231.387 464.974,225.709C466.93,220.031 465.523,216.929 462.844,215.263C461.174,214.225 457.183,213.883 454.686,214.881C451.614,216.108 449.334,219.619 449.334,219.619L447.869,221.96L413.515,183.309L405.906,164.754Z"
        style="fill: rgb(43, 31, 27);"
      />
    </g>
    <g transform="matrix(1,0,0,1,8.3815,0)">
      <path
        d="M474.213,226.082C474.204,226.023 474.195,225.963 474.187,225.903L474.213,226.082Z"
        style="fill: rgb(43, 31, 27);"
      />
    </g>
    <g transform="matrix(1,0,0,1,8.3815,0)">
      <path d="M157.11,211.056L166.465,223.979L170.13,207.391L157.11,211.056Z" style="fill: rgb(16, 10, 26);" />
    </g>
    <g transform="matrix(1,0,0,1,8.3815,0)">
      <path
        d="M246.861,443.619L243.501,460.646L242.424,474.952L239.988,480.895L233.298,497.215L219.888,501.828L226.22,445.468L246.861,443.619Z"
        style="fill: rgb(57, 29, 17);"
      />
    </g>
    <g transform="matrix(1,0,0,1,8.3815,0)">
      <path
        d="M226.255,259.367C226.255,259.367 238.045,264.678 242.869,273.302C257.108,298.368 266.554,401.291 266.554,401.291C266.554,401.291 268.16,434.071 248.075,451.103C234.01,463.03 216.581,453.192 216.581,453.192L226.255,259.367Z"
        style="fill: rgb(92, 34, 158);"
      />
    </g>
    <g transform="matrix(1,0,0,1,8.3815,0)">
      <path
        d="M162.274,741.126L162.6,772.818C162.6,772.818 243.871,777.892 258.523,776.183C266.876,775.209 220.154,759.804 220.154,759.804L188.524,735.556L183.511,724.833L163.109,720.167L162.274,741.126Z"
        style="fill: rgb(94, 12, 153);"
      />
    </g>
    <g transform="matrix(1,0,0,1,8.3815,0)">
      <path
        d="M133.532,726.104L134.633,741.281L123.064,777.748L109.181,793.254C109.181,793.254 109.892,809.97 123.051,812.874C136.21,815.778 162.465,797.134 162.465,797.134L162.662,749.828L161.831,706.942L133.532,726.104Z"
        style="fill: rgb(152, 52, 223);"
      />
    </g>
    <g transform="matrix(1,0,0,1,8.3815,0)">
      <path
        d="M221.219,376.699C221.219,376.699 231.029,403.295 231.667,422.365C227.644,477.661 218.358,519.849 205.128,597.881C191.764,676.699 189.037,735.881 189.037,735.881C189.037,735.881 178.332,740.79 170.491,738.881C162.65,736.972 157.673,728.245 157.673,728.245L183.309,380.517L221.219,376.699Z"
        style="fill: url(#_Linear4);"
      />
    </g>
    <g transform="matrix(1,0,0,1,8.3815,0)">
      <path
        d="M196.945,382.108L195.215,439.871L187.606,447.481C187.606,447.481 176.537,514.583 170.311,586.528C164.085,658.473 162.441,739.821 162.441,739.821C162.441,739.821 152.942,748.332 145.571,748.748C138.199,749.165 132.956,741.486 132.956,741.486C132.956,741.486 128.462,694.506 126.116,653.69C125.264,638.864 123.389,624.852 123.962,614.199C124.854,597.652 131.918,581.34 131.918,581.34C131.918,581.34 130.246,469.244 132.61,418.772C140.342,380.91 146.099,381.07 146.099,381.07L196.945,382.108Z"
        style="fill: url(#_Linear5);"
      />
    </g>
    <g transform="matrix(1,0,0,1,8.3815,0)">
      <path
        d="M128.055,256.428C128.055,256.428 151.626,250.071 175.542,250.373C199.458,250.676 226.283,259.367 226.283,259.367C226.283,259.367 229.898,269.991 230.165,299.866C230.432,329.741 225.233,379.665 225.233,379.665C225.233,379.665 210.668,387.58 188.199,387.883C165.729,388.185 138.523,380.211 138.523,380.211C138.523,380.211 129.728,335.089 127.374,304.177C125.019,273.264 128.055,256.428 128.055,256.428Z"
        style="fill: rgb(155, 68, 255);"
      />
    </g>
    <g transform="matrix(1,0,0,1,8.3815,0)">
      <path
        d="M128.078,256.433C128.078,256.433 121.513,256.948 114.51,263.037C107.51,269.124 102.344,283.344 102.344,283.344C102.344,283.344 62.855,370.621 71.544,392.98C77.605,408.576 88.344,416.662 105.144,416.96C121.944,417.257 138.744,394.168 138.744,394.168L128.078,256.433Z"
        style="fill: url(#_Linear6);"
      />
    </g>
    <g transform="matrix(1,0,0,1,8.3815,0)">
      <path
        d="M216.668,309.662L199.809,410.793C199.283,413.95 193.4,416.975 189.966,416.403L122.65,403.804C119.216,403.232 116.859,400.209 117.385,397.053L131.624,296.007C132.15,292.851 137.981,290.671 141.415,291.243L211.403,302.911C214.837,303.483 217.194,306.506 216.668,309.662Z"
        style="fill: rgb(155, 170, 255);"
      />
    </g>
    <g transform="matrix(1,0,0,1,8.3815,0)">
      <path
        d="M213.763,310.562L196.903,411.694C196.377,414.85 193.167,416.945 189.733,416.372L119.745,404.705C116.311,404.132 113.954,401.11 114.48,397.953L131.339,296.822C131.865,293.666 135.075,291.571 138.509,292.144L208.498,303.811C211.932,304.384 214.289,307.406 213.763,310.562Z"
        style="fill: rgb(241, 249, 255);"
      />
    </g>
    <g transform="matrix(1,0,0,1,8.3815,0)">
      <path
        d="M150.784,310.172L148.989,320.918L138.574,319.178L140.37,308.432L150.784,310.172Z"
        style="fill: rgb(155, 168, 255); fill-opacity: 0.58;"
      />
    </g>
    <g transform="matrix(1,0,0,1,8.3815,0)">
      <path
        d="M146.499,330.36L144.71,341.342L134.493,339.678L136.282,328.696L146.499,330.36Z"
        style="fill: rgb(155, 168, 255); fill-opacity: 0.54;"
      />
    </g>
    <g transform="matrix(1,0,0,1,8.3815,0)">
      <path
        d="M143.169,351.572L141.24,362.9L130.313,361.04L132.242,349.711L143.169,351.572Z"
        style="fill: rgb(155, 168, 255);"
      />
    </g>
    <g transform="matrix(1,0,0,1,8.3815,0)">
      <path
        d="M139.332,371.272L137.349,382.814L126.713,380.987L128.696,369.445L139.332,371.272Z"
        style="fill: rgb(155, 168, 255);"
      />
    </g>
    <g transform="matrix(1,0,0,1,8.3815,0)">
      <path
        d="M204.207,321.613L202.121,334.785C201.868,336.382 200.673,337.521 199.452,337.327L158.933,330.91C157.712,330.717 156.927,329.265 157.18,327.667L159.266,314.496C159.519,312.898 160.714,311.759 161.935,311.953L202.454,318.37C203.676,318.563 204.46,320.015 204.207,321.613Z"
        style="fill: rgb(201, 209, 255); fill-opacity: 0.38;"
      />
    </g>
    <g transform="matrix(1,0,0,1,8.3815,0)">
      <path
        d="M201.592,345.145L199.103,362.363C198.926,363.586 197.814,364.431 196.62,364.249L154.915,357.925C153.721,357.744 152.896,356.606 153.073,355.383L155.562,338.165C155.739,336.942 156.851,336.097 158.045,336.278L199.75,342.602C200.944,342.783 201.769,343.922 201.592,345.145Z"
        style="fill: rgb(201, 209, 255); fill-opacity: 0.38;"
      />
    </g>
    <g transform="matrix(1,0,0,1,8.3815,0)">
      <path
        d="M163.762,370.189C163.762,370.189 160.178,377.007 160.832,383.912C161.486,390.817 166.719,394.892 166.719,394.892L186.17,394.166L204.625,391.654C204.625,391.654 221.289,376.853 224.097,366.771C226.906,356.689 205.838,358.019 205.838,358.019L194.617,363.815L188.575,362.959C188.575,362.959 186.669,362.167 189.103,359.42C191.537,356.673 194.807,351.461 194.807,351.461C194.807,351.461 194.809,347.352 189.719,349.363C187.548,350.221 175.694,358.78 174.56,362.606C173.468,366.289 171.9,369.927 171.9,369.927L163.762,370.189Z"
        style="fill: rgb(97, 52, 33);"
      />
    </g>
    <g transform="matrix(1,0,0,1,8.3815,0)">
      <path
        d="M177.067,382.74C177.045,380.043 176.657,377.515 176.264,374.865C174.851,365.351 171.559,354.045 157.982,348.44C142.165,341.911 88.712,361.397 88.712,361.397C88.712,361.397 70.921,369.469 70.231,381.522C69.218,399.249 81.748,410.115 81.748,410.115C81.748,410.115 93.605,424.994 136.862,416.803C159.677,412.483 169.404,411.672 175.698,391.647C176.753,388.289 177.09,385.438 177.067,382.74Z"
        style="fill: rgb(119, 56, 192);"
      />
    </g>
    <g transform="matrix(1,0,0,1,8.3815,0)">
      <path
        d="M196.862,231.08L197.216,257.511C197.216,257.511 187.303,265.018 179.393,262.709C171.484,260.4 164.772,253.15 164.772,253.15L163.87,204.515L196.862,231.08Z"
        style="fill: url(#_Linear7);"
      />
    </g>
    <g transform="matrix(1,0,0,1,8.3815,0)">
      <path
        d="M201.359,141.794C201.359,141.794 211.719,145.476 219.409,155.764C223.273,160.935 226.165,169.329 227.274,186.629C228.383,203.93 226.341,213.704 223.845,224.967C222.691,228.929 221.128,231.015 217.102,231.322C186.902,233.622 171.754,224.363 171.754,224.363C171.754,224.363 168.999,221.34 167.285,217.55C165.57,213.759 164.016,210.546 164.016,210.546C164.016,210.546 159.509,216.481 155.198,215.261C152.068,214.374 149.907,213.364 147.051,209.253C143.18,203.682 143.897,198.363 143.897,198.363C143.897,198.363 143.916,193.194 148.504,191.944C151.968,191.039 154.883,193.318 154.883,193.318L158.862,161.165L161.108,155.261L201.359,141.794Z"
        style="fill: rgb(97, 52, 33);"
      />
    </g>
    <g transform="matrix(1,0,0,1,8.3815,0)">
      <path
        d="M444.792,231.01C454.892,254.272 479.781,210.201 455.657,214.62L444.792,231.01Z"
        style="fill: rgb(236, 200, 170);"
      />
    </g>
    <g transform="matrix(1,0,0,1,8.3815,0)">
      <path
        d="M149.379,191.82C153.891,191.182 159.427,197.665 159.427,197.665L166.229,180.061L161.122,168.952L163.942,159.111C163.942,159.111 174.178,151.57 190.701,149.041C218.265,146.394 223.221,163.061 223.221,163.061L221.742,125.939L221.774,125.876C221.774,125.876 194.122,120.076 175.99,123.251C157.859,126.425 140.751,136.798 140.751,136.798C140.751,136.798 144.498,176.137 149.379,191.82Z"
        style="fill: url(#_Linear8);"
      />
    </g>
    <g id="bulb" transform="matrix(1,0,0,1,8.3815,0)">
      <path
        d="M313.197,194.236C313.197,196.371 311.466,198.102 309.331,198.102L304.001,198.102C301.866,198.102 300.135,196.371 300.135,194.236C300.135,192.101 301.866,190.37 304.001,190.37L309.331,190.37C311.466,190.37 313.197,192.101 313.197,194.236Z"
        style="fill: rgb(90, 87, 125);"
      />
      <rect x="295.903" y="178.794" width="20.719" height="9.719" style="fill: rgb(79, 79, 119);" />
      <g>
        <path
          id="light-top"
          d="M307.398,113.772C322.21,113.772 334.217,125.78 334.217,140.593C334.217,155.406 322.21,167.414 307.398,167.414C292.587,167.414 280.58,155.406 280.58,140.593C280.58,125.78 292.587,113.772 307.398,113.772Z"
          style="fill: #ffe39c;"
        />
        <path
          id="light-top-luminance"
          d="M307.398,113.772C322.21,113.772 334.217,125.78 334.217,140.593C334.217,155.406 322.21,167.414 307.398,167.414C292.587,167.414 280.58,155.406 280.58,140.593C280.58,125.78 292.587,113.772 307.398,113.772Z"
          style="fill: url(#_Radial9);"
        />
      </g>
      <path
        id="light-bottom"
        d="M288.898,159.923C288.898,159.923 292.045,164.955 293.601,169.982C295.156,175.01 295.12,180.032 295.12,180.032L317.837,180.12C317.837,180.12 318.249,174.982 320.157,169.893C322.064,164.804 325.467,159.765 325.467,159.765L288.898,159.923Z"
        style="fill: #ffe39c;"
      />
      <path
        d="M318.192,189.541C318.192,191.037 317.073,192.249 315.691,192.249L296.503,192.249C295.122,192.249 294.002,191.037 294.002,189.541C294.002,188.045 295.122,186.833 296.503,186.833L315.691,186.833C317.073,186.833 318.192,188.045 318.192,189.541Z"
        style="fill: rgb(98, 95, 138);"
      />
      <path
        d="M319.748,180.218C319.748,182.252 318.099,183.901 316.066,183.901L296.453,183.901C294.419,183.901 292.77,182.252 292.77,180.218C292.77,178.184 294.419,176.536 296.453,176.536L316.066,176.536C318.099,176.536 319.748,178.184 319.748,180.218Z"
        style="fill: url(#_Linear10);"
      />
      <path d="M301.045,176.801L294.092,147.63L301.045,176.801Z" style="fill: white;" />
      <g>
        <path
          d="M304.234,120.199C309.184,118.678 318.183,120.682 323.583,127.596C328.983,134.509 328.611,142.215 326.753,146.68"
          style="fill: none; fill-rule: nonzero; stroke: white; stroke-opacity: 0.5; stroke-width: 7.61px;"
        />
        <path
          d="M295.844,123.176C295.848,123.21 295.852,123.237 295.852,123.237C295.852,123.237 295.848,123.21 295.844,123.176ZM295.844,123.176C295.84,123.143 295.836,123.115 295.836,123.115C295.836,123.115 295.84,123.143 295.844,123.176Z"
          style="fill: none; fill-rule: nonzero; stroke: white; stroke-opacity: 0.5; stroke-width: 7.61px;"
        />
      </g>
      <g opacity="0.62">
        <path
          d="M303.331,176.421C303.331,176.421 304.426,160.917 301.82,155.502C300.003,151.724 298.649,152.106 297.5,152.451C296.351,152.797 296.081,154.077 297.224,156.883C298.315,159.559 301.841,160.641 305.129,159.741C308.418,158.841 310.501,156.087 310.378,153.281C310.244,150.223 308.617,148.942 307.148,148.788C305.679,148.633 304.905,149.678 304.501,152.663C304.151,155.253 305.602,158.886 308.664,159.602C311.725,160.318 316.549,159.211 317.189,156.465C317.63,154.57 317.419,151.176 315.968,151.042C314.583,150.914 314.201,150.445 312.613,154.248C310.156,160.132 310.609,176.473 310.609,176.473"
          style="fill: none; fill-rule: nonzero; stroke: white; stroke-width: 1px; stroke-linecap: butt;"
        />
        <path
          d="M299.468,162.113C300.452,162.113 301.25,162.939 301.25,163.959C301.25,164.979 300.452,165.806 299.468,165.806C298.483,165.806 297.685,164.979 297.685,163.959C297.685,162.939 298.483,162.113 299.468,162.113Z"
          style="fill: none; stroke: white; stroke-width: 1px;"
        />
        <path
          d="M316.325,161.238C317.46,161.238 318.381,162.112 318.381,163.19C318.381,164.267 317.46,165.141 316.325,165.141C315.189,165.141 314.269,164.267 314.269,163.19C314.269,162.112 315.189,161.238 316.325,161.238Z"
          style="fill: none; stroke: white; stroke-width: 1px;"
        />
      </g>
    </g>
  </g>
  <defs>
    <linearGradient
      id="_Linear1"
      x1="0"
      y1="0"
      x2="1"
      y2="0"
      gradientUnits="userSpaceOnUse"
      gradientTransform="matrix(-138.593,0.613,-0.613,-138.593,477.893,442.174)"
    >
      <stop offset="0" style="stop-color: rgb(155, 68, 255); stop-opacity: 1;" />
      <stop offset="1" style="stop-color: rgb(92, 34, 158); stop-opacity: 1;" />
    </linearGradient>
    <linearGradient
      id="_Linear2"
      x1="0"
      y1="0"
      x2="1"
      y2="0"
      gradientUnits="userSpaceOnUse"
      gradientTransform="matrix(-5.105,213.414,-213.414,-5.105,425.347,273.356)"
    >
      <stop offset="0" style="stop-color: rgb(98, 208, 255); stop-opacity: 1;" />
      <stop offset="1" style="stop-color: rgb(171, 99, 255); stop-opacity: 1;" />
    </linearGradient>
    <linearGradient
      id="_Linear3"
      x1="0"
      y1="0"
      x2="1"
      y2="0"
      gradientUnits="userSpaceOnUse"
      gradientTransform="matrix(-0.668,69.488,-69.488,-0.668,430.614,232.857)"
    >
      <stop offset="0" style="stop-color: rgb(211, 158, 115); stop-opacity: 1;" />
      <stop offset="1" style="stop-color: rgb(236, 200, 170); stop-opacity: 1;" />
    </linearGradient>
    <linearGradient
      id="_Linear4"
      x1="0"
      y1="0"
      x2="1"
      y2="0"
      gradientUnits="userSpaceOnUse"
      gradientTransform="matrix(-1.28,438.225,-438.225,-1.28,194.67,376.699)"
    >
      <stop offset="0" style="stop-color: rgb(4, 139, 197); stop-opacity: 1;" />
      <stop offset="1" style="stop-color: rgb(119, 56, 192); stop-opacity: 1;" />
    </linearGradient>
    <linearGradient
      id="_Linear5"
      x1="0"
      y1="0"
      x2="1"
      y2="0"
      gradientUnits="userSpaceOnUse"
      gradientTransform="matrix(-0.608,539.504,-539.504,-0.608,160.4,381.071)"
    >
      <stop offset="0" style="stop-color: rgb(98, 208, 255); stop-opacity: 1;" />
      <stop offset="1" style="stop-color: rgb(180, 115, 255); stop-opacity: 1;" />
    </linearGradient>
    <linearGradient
      id="_Linear6"
      x1="0"
      y1="0"
      x2="1"
      y2="0"
      gradientUnits="userSpaceOnUse"
      gradientTransform="matrix(4.8901,109.712,-109.712,4.8901,99.6299,307.251)"
    >
      <stop offset="0" style="stop-color: rgb(119, 56, 192); stop-opacity: 1;" />
      <stop offset="1" style="stop-color: rgb(92, 34, 158); stop-opacity: 1;" />
    </linearGradient>
    <linearGradient
      id="_Linear7"
      x1="0"
      y1="0"
      x2="1"
      y2="0"
      gradientUnits="userSpaceOnUse"
      gradientTransform="matrix(1.854,48.202,-48.202,1.854,181.066,216.854)"
    >
      <stop offset="0" style="stop-color: rgb(57, 29, 17); stop-opacity: 1;" />
      <stop offset="1" style="stop-color: rgb(97, 52, 33); stop-opacity: 1;" />
    </linearGradient>
    <linearGradient
      id="_Linear8"
      x1="0"
      y1="0"
      x2="1"
      y2="0"
      gradientUnits="userSpaceOnUse"
      gradientTransform="matrix(1.034,17.365,-17.365,1.034,180.952,180.3)"
    >
      <stop offset="0" style="stop-color: rgb(16, 10, 26); stop-opacity: 1;" />
      <stop offset="1" style="stop-color: rgb(97, 52, 33); stop-opacity: 1;" />
    </linearGradient>
    <radialGradient
      id="_Radial9"
      cx="0"
      cy="0"
      r="1"
      gradientUnits="userSpaceOnUse"
      gradientTransform="matrix(-9.49121e-15,24.7905,-24.7905,-9.49121e-15,306.998,136.695)"
    >
      <stop offset="0" style="stop-color: white; stop-opacity: 0.4;" />
      <stop offset="1" style="stop-color: white; stop-opacity: 0;" />
    </radialGradient>
    <linearGradient
      id="_Linear10"
      x1="0"
      y1="0"
      x2="1"
      y2="0"
      gradientUnits="userSpaceOnUse"
      gradientTransform="matrix(4.50976e-16,7.365,-7.365,4.50976e-16,306.259,176.535)"
    >
      <stop offset="0" style="stop-color: rgb(98, 95, 138); stop-opacity: 1;" />
      <stop offset="0.98" style="stop-color: rgb(98, 95, 138); stop-opacity: 1;" />
      <stop offset="1" style="stop-color: rgb(98, 95, 138); stop-opacity: 1;" />
    </linearGradient>
  </defs>
</svg>
